<?xml version="1.0" encoding="UTF-8"?>
<svg xmlns="http://www.w3.org/2000/svg" xmlns:xlink="http://www.w3.org/1999/xlink" width="430pt" height="325pt" viewBox="0 0 430 325" version="1.1">
<g id="surface1">
<path style=" stroke:none;fill-rule:nonzero;fill:rgb(42.352941%,38.823529%,100%);fill-opacity:1;" d="M 368.355469 175.953125 C 368.355469 225.910156 339.09375 270.109375 294.242188 297.011719 C 265.480469 314.265625 230.308594 324.410156 192.332031 324.410156 C 141.738281 324.410156 103.144531 305.269531 74.113281 275.949219 C 47.355469 248.929688 28.722656 213.257812 16.308594 175.953125 C -39.117188 9.390625 53.46875 -36.050781 192.332031 27.496094 C 280.746094 67.960938 368.355469 93.964844 368.355469 175.953125 Z M 368.355469 175.953125 "/>
<path style=" stroke:none;fill-rule:nonzero;fill:rgb(94.901961%,94.901961%,94.901961%);fill-opacity:1;" d="M 294.242188 88.753906 L 294.242188 297.40625 C 265.480469 314.660156 230.308594 324.804688 192.332031 324.804688 C 141.738281 324.804688 103.144531 305.664062 74.113281 276.34375 L 74.113281 88.753906 Z M 294.242188 88.753906 "/>
<path style=" stroke:none;fill-rule:nonzero;fill:rgb(24.705882%,23.921569%,33.72549%);fill-opacity:1;" d="M 95.285156 190.421875 C 106.8125 186.753906 118.769531 184.617188 130.851562 184.074219 C 136.90625 183.816406 142.972656 184.054688 148.988281 184.785156 C 154.945312 185.574219 160.828125 186.835938 166.585938 188.558594 C 172.277344 190.207031 177.886719 192.109375 183.554688 193.824219 C 189.316406 195.582031 195.171875 197.015625 201.09375 198.105469 C 206.984375 199.175781 212.9375 199.882812 218.914062 200.234375 C 224.832031 200.578125 230.808594 200.644531 236.710938 200.011719 C 242.222656 199.480469 247.621094 198.113281 252.722656 195.949219 C 257.480469 193.871094 261.875 191.050781 265.746094 187.589844 C 266.710938 186.726562 267.640625 185.824219 268.53125 184.886719 C 269.058594 184.335938 268.222656 183.496094 267.695312 184.046875 C 260.152344 191.941406 250.234375 196.835938 239.480469 198.472656 C 233.621094 199.363281 227.648438 199.414062 221.738281 199.183594 C 215.695312 198.953125 209.671875 198.34375 203.703125 197.359375 C 197.808594 196.382812 191.976562 195.054688 186.238281 193.382812 C 180.601562 191.746094 175.039062 189.863281 169.421875 188.164062 C 163.757812 186.382812 157.972656 185.003906 152.113281 184.035156 C 146.238281 183.136719 140.296875 182.726562 134.355469 182.800781 C 122.476562 182.992188 110.675781 184.738281 99.253906 188.003906 C 97.820312 188.40625 96.390625 188.832031 94.972656 189.28125 C 94.246094 189.507812 94.554688 190.652344 95.285156 190.421875 Z M 95.285156 190.421875 "/>
<path style=" stroke:none;fill-rule:nonzero;fill:rgb(24.705882%,23.921569%,33.72549%);fill-opacity:1;" d="M 95.285156 220.433594 C 106.8125 216.765625 118.769531 214.628906 130.851562 214.085938 C 136.90625 213.828125 142.972656 214.066406 148.988281 214.796875 C 154.945312 215.585938 160.828125 216.847656 166.585938 218.570312 C 172.277344 220.21875 177.886719 222.125 183.554688 223.835938 C 189.316406 225.597656 195.171875 227.027344 201.09375 228.117188 C 206.984375 229.1875 212.9375 229.894531 218.914062 230.246094 C 224.832031 230.589844 230.808594 230.65625 236.710938 230.023438 C 242.222656 229.492188 247.621094 228.125 252.722656 225.960938 C 257.480469 223.882812 261.875 221.0625 265.746094 217.601562 C 266.710938 216.738281 267.640625 215.835938 268.53125 214.898438 C 269.058594 214.347656 268.222656 213.507812 267.695312 214.058594 C 260.152344 221.953125 250.234375 226.851562 239.480469 228.484375 C 233.621094 229.375 227.648438 229.425781 221.738281 229.195312 C 215.695312 228.964844 209.671875 228.355469 203.703125 227.375 C 197.808594 226.394531 191.976562 225.066406 186.238281 223.394531 C 180.601562 221.757812 175.039062 219.875 169.421875 218.175781 C 163.757812 216.394531 157.972656 215.015625 152.113281 214.046875 C 146.238281 213.152344 140.296875 212.738281 134.355469 212.8125 C 122.476562 213.003906 110.675781 214.753906 99.253906 218.015625 C 97.820312 218.417969 96.390625 218.84375 94.972656 219.292969 C 94.246094 219.519531 94.554688 220.664062 95.285156 220.433594 Z M 95.285156 220.433594 "/>
<path style=" stroke:none;fill-rule:nonzero;fill:rgb(24.705882%,23.921569%,33.72549%);fill-opacity:1;" d="M 95.285156 163.175781 C 106.8125 159.503906 118.769531 157.371094 130.851562 156.828125 C 136.90625 156.570312 142.972656 156.808594 148.988281 157.539062 C 154.945312 158.328125 160.828125 159.585938 166.585938 161.308594 C 172.277344 162.957031 177.886719 164.863281 183.554688 166.574219 C 189.316406 168.335938 195.171875 169.765625 201.09375 170.859375 C 206.984375 171.925781 212.9375 172.636719 218.914062 172.984375 C 224.832031 173.328125 230.808594 173.394531 236.710938 172.765625 C 242.222656 172.234375 247.621094 170.863281 252.722656 168.703125 C 257.480469 166.625 261.875 163.800781 265.746094 160.339844 C 266.710938 159.476562 267.640625 158.578125 268.53125 157.636719 C 269.058594 157.085938 268.222656 156.246094 267.695312 156.800781 C 260.152344 164.695312 250.234375 169.589844 239.480469 171.226562 C 233.621094 172.113281 227.648438 172.167969 221.738281 171.9375 C 215.695312 171.703125 209.671875 171.09375 203.703125 170.113281 C 197.808594 169.132812 191.976562 167.804688 186.238281 166.132812 C 180.601562 164.5 175.039062 162.613281 169.421875 160.914062 C 163.757812 159.132812 157.972656 157.753906 152.113281 156.785156 C 146.238281 155.890625 140.296875 155.476562 134.355469 155.554688 C 122.476562 155.742188 110.675781 157.492188 99.253906 160.753906 C 97.820312 161.160156 96.390625 161.585938 94.972656 162.03125 C 94.246094 162.257812 94.554688 163.402344 95.285156 163.175781 Z M 95.285156 163.175781 "/>
<path style=" stroke:none;fill-rule:nonzero;fill:rgb(24.705882%,23.921569%,33.72549%);fill-opacity:1;" d="M 93.875 111.65625 C 96.738281 110.386719 100.019531 110.609375 102.992188 111.34375 C 106.195312 112.136719 109.210938 113.519531 112.367188 114.472656 C 118.011719 116.15625 124.007812 116.273438 129.714844 114.804688 C 132.925781 113.984375 135.992188 112.667969 138.800781 110.90625 C 139.445312 110.5 138.851562 109.476562 138.203125 109.882812 C 133.199219 113.011719 127.410156 114.664062 121.507812 114.644531 C 118.550781 114.640625 115.605469 114.207031 112.769531 113.359375 C 109.636719 112.417969 106.644531 111.054688 103.472656 110.246094 C 100.113281 109.386719 96.507812 109.203125 93.277344 110.632812 C 92.582031 110.941406 93.183594 111.964844 93.875 111.65625 Z M 93.875 111.65625 "/>
<path style=" stroke:none;fill-rule:nonzero;fill:rgb(24.705882%,23.921569%,33.72549%);fill-opacity:1;" d="M 199.957031 275.148438 C 199.957031 285.179688 191.832031 293.3125 181.808594 293.3125 C 171.789062 293.3125 163.664062 285.179688 163.664062 275.148438 C 163.664062 265.113281 171.789062 256.980469 181.808594 256.980469 C 191.832031 256.980469 199.957031 265.113281 199.957031 275.148438 Z M 199.957031 275.148438 "/>
<path style=" stroke:none;fill-rule:nonzero;fill:rgb(94.901961%,94.901961%,94.901961%);fill-opacity:1;" d="M 93.835938 41.761719 C 93.835938 47.214844 89.421875 51.636719 83.976562 51.636719 C 78.527344 51.636719 74.113281 47.214844 74.113281 41.761719 C 74.113281 36.3125 78.527344 31.890625 83.976562 31.890625 C 89.421875 31.890625 93.835938 36.3125 93.835938 41.761719 Z M 93.835938 41.761719 "/>
<path style=" stroke:none;fill-rule:nonzero;fill:rgb(94.901961%,94.901961%,94.901961%);fill-opacity:1;" d="M 177.074219 69.800781 C 177.074219 73.507812 174.074219 76.515625 170.371094 76.515625 C 166.664062 76.515625 163.664062 73.507812 163.664062 69.800781 C 163.664062 66.09375 166.664062 63.085938 170.371094 63.085938 C 174.074219 63.085938 177.074219 66.09375 177.074219 69.800781 Z M 177.074219 69.800781 "/>
<path style=" stroke:none;fill-rule:nonzero;fill:rgb(94.901961%,94.901961%,94.901961%);fill-opacity:1;" d="M 68.195312 134.167969 C 68.195312 137.875 65.191406 140.882812 61.488281 140.882812 C 57.785156 140.882812 54.78125 137.875 54.78125 134.167969 C 54.78125 130.460938 57.785156 127.457031 61.488281 127.457031 C 65.191406 127.457031 68.195312 130.460938 68.195312 134.167969 Z M 68.195312 134.167969 "/>
<path style=" stroke:none;fill-rule:nonzero;fill:rgb(24.705882%,23.921569%,33.72549%);fill-opacity:1;" d="M 33.746094 84.296875 L 34.488281 84.296875 L 34.488281 216.683594 L 33.746094 216.683594 Z M 33.746094 84.296875 "/>
<path style=" stroke:none;fill-rule:nonzero;fill:rgb(24.705882%,23.921569%,33.72549%);fill-opacity:1;" d="M 48.683594 172.394531 C 48.683594 154.199219 42.226562 139.449219 34.261719 139.449219 C 26.296875 139.449219 19.839844 154.199219 19.839844 172.394531 C 19.839844 190.589844 26.296875 205.335938 34.261719 205.335938 C 42.226562 205.335938 48.683594 190.589844 48.683594 172.394531 Z M 48.683594 172.394531 "/>
<path style=" stroke:none;fill-rule:nonzero;fill:rgb(24.705882%,23.921569%,33.72549%);fill-opacity:1;" d="M 48.683594 97.25 C 48.683594 79.058594 42.226562 64.308594 34.261719 64.308594 C 26.296875 64.308594 19.839844 79.058594 19.839844 97.25 C 19.839844 115.445312 26.296875 130.195312 34.261719 130.195312 C 42.226562 130.195312 48.683594 115.445312 48.683594 97.25 Z M 48.683594 97.25 "/>
<path style=" stroke:none;fill-rule:nonzero;fill:rgb(24.705882%,23.921569%,33.72549%);fill-opacity:1;" d="M 34.613281 70.335938 L 33.90625 70.125 C 33.949219 69.972656 38.296875 55.058594 31.160156 45.457031 C 27.128906 40.035156 20.207031 37.285156 10.59375 37.285156 L 10.59375 36.546875 C 20.457031 36.546875 27.574219 39.398438 31.753906 45.019531 C 39.113281 54.921875 34.660156 70.183594 34.613281 70.335938 Z M 34.613281 70.335938 "/>
<path style=" stroke:none;fill-rule:nonzero;fill:rgb(24.705882%,23.921569%,33.72549%);fill-opacity:1;" d="M 19.839844 36.917969 C 19.839844 42.027344 15.699219 46.171875 10.59375 46.171875 C 5.488281 46.171875 1.351562 42.027344 1.351562 36.917969 C 1.351562 31.804688 5.488281 27.664062 10.59375 27.664062 C 15.699219 27.664062 19.839844 31.804688 19.839844 36.917969 Z M 19.839844 36.917969 "/>
<path style=" stroke:none;fill-rule:nonzero;fill:rgb(18.431373%,18.039216%,25.490196%);fill-opacity:1;" d="M 304.054688 246.683594 L 297.136719 310.378906 L 344.859375 310.378906 L 346.9375 305.53125 L 349.703125 310.378906 L 394.660156 310.378906 C 394.660156 310.378906 391.199219 244.605469 384.976562 242.527344 C 378.75 240.453125 304.054688 246.683594 304.054688 246.683594 Z M 304.054688 246.683594 "/>
<path style=" stroke:none;fill-rule:nonzero;fill:rgb(100%,72.156863%,72.156863%);fill-opacity:1;" d="M 369.070312 82.59375 C 369.070312 95.976562 358.230469 106.828125 344.859375 106.828125 C 331.492188 106.828125 320.652344 95.976562 320.652344 82.59375 C 320.652344 69.210938 331.492188 58.363281 344.859375 58.363281 C 358.230469 58.363281 369.070312 69.210938 369.070312 82.59375 Z M 369.070312 82.59375 "/>
<path style=" stroke:none;fill-rule:nonzero;fill:rgb(100%,72.156863%,72.156863%);fill-opacity:1;" d="M 331.027344 97.828125 C 331.027344 97.828125 333.101562 119.980469 331.027344 121.367188 C 328.953125 122.75 364.226562 122.058594 364.226562 122.058594 C 364.226562 122.058594 359.386719 101.980469 364.226562 92.289062 Z M 331.027344 97.828125 "/>
<path style=" stroke:none;fill-rule:nonzero;fill:rgb(81.568627%,80.392157%,88.235294%);fill-opacity:1;" d="M 343.476562 116.519531 C 343.476562 116.519531 361.273438 119.296875 362.75 113.753906 L 371.835938 126.214844 L 372.527344 250.835938 C 372.527344 250.835938 298.519531 259.835938 295.753906 245.296875 C 292.988281 230.757812 324.109375 115.828125 324.109375 115.828125 L 331.945312 115.320312 C 331.945312 115.320312 342.09375 116.519531 343.476562 116.519531 Z M 343.476562 116.519531 "/>
<path style=" stroke:none;fill-rule:nonzero;fill:rgb(24.705882%,23.921569%,33.72549%);fill-opacity:1;" d="M 331.828125 109.632812 L 319.960938 113.75 L 286.070312 122.058594 L 287.453125 205.140625 C 287.453125 205.140625 258.40625 288.222656 271.546875 294.457031 C 284.6875 300.6875 303.363281 286.148438 308.894531 275.761719 C 314.429688 265.375 333.792969 121.367188 333.792969 118.597656 C 333.792969 115.828125 331.828125 109.632812 331.828125 109.632812 Z M 331.828125 109.632812 "/>
<path style=" stroke:none;fill-rule:nonzero;fill:rgb(24.705882%,23.921569%,33.72549%);fill-opacity:1;" d="M 362.304688 109.632812 L 366.992188 113.75 L 400.191406 128.984375 L 383.59375 212.757812 C 383.59375 212.757812 405.726562 288.917969 397.425781 293.070312 C 389.125 297.226562 376.675781 308.996094 373.910156 302.070312 C 371.144531 295.148438 354.851562 117.289062 362.304688 109.632812 Z M 362.304688 109.632812 "/>
<path style=" stroke:none;fill-rule:nonzero;fill:rgb(100%,72.156863%,72.156863%);fill-opacity:1;" d="M 381.519531 220.375 C 381.519531 220.375 350.394531 207.21875 349.703125 218.988281 C 349.011719 230.757812 384.976562 239.066406 384.976562 235.605469 C 384.976562 232.144531 381.519531 220.375 381.519531 220.375 Z M 381.519531 220.375 "/>
<path style=" stroke:none;fill-rule:nonzero;fill:rgb(100%,72.156863%,72.156863%);fill-opacity:1;" d="M 305.4375 215.527344 C 305.4375 215.527344 341.402344 242.527344 327.570312 249.453125 C 313.738281 256.375 295.753906 225.21875 295.753906 225.21875 Z M 305.4375 215.527344 "/>
<path style=" stroke:none;fill-rule:nonzero;fill:rgb(18.431373%,18.039216%,25.490196%);fill-opacity:1;" d="M 355.609375 47.097656 C 355.839844 46.605469 356.347656 46.304688 356.894531 46.335938 C 345.808594 45.671875 334.136719 46.964844 324.863281 53.078125 C 322.269531 54.789062 319.84375 56.882812 316.886719 57.847656 L 319.285156 59.734375 L 316.417969 60.609375 L 320.636719 63.335938 C 319.769531 64.324219 318.441406 64.769531 317.15625 64.503906 C 318.988281 65.042969 320.339844 66.675781 321.023438 68.460938 C 321.710938 70.246094 321.835938 72.1875 321.949219 74.097656 C 322.660156 71.34375 325.660156 69.722656 328.496094 69.558594 C 331.335938 69.394531 334.101562 70.328125 336.859375 71.003906 C 342.871094 72.464844 349.117188 72.707031 355.222656 71.710938 C 353.148438 75.875 354.898438 80.84375 356.660156 85.152344 L 360.175781 93.753906 C 362.125 93.949219 363.503906 92.007812 364.972656 90.707031 C 366.316406 89.523438 360.980469 99.941406 361.804688 99.558594 C 362.878906 99.0625 374.203125 86.546875 374.730469 85.492188 C 377.152344 80.667969 378.601562 75.289062 378.382812 69.894531 C 378.164062 64.503906 376.195312 59.109375 372.480469 55.195312 C 369.960938 52.539062 366.472656 52.074219 363.902344 49.863281 C 362.890625 48.996094 362.886719 48.316406 361.496094 47.808594 C 361.035156 47.640625 355.683594 46.929688 355.609375 47.097656 Z M 355.609375 47.097656 "/>
<path style=" stroke:none;fill-rule:nonzero;fill:rgb(24.705882%,23.921569%,33.72549%);fill-opacity:1;" d="M 290.910156 124.136719 L 286.070312 122.058594 L 247.339844 185.757812 C 247.339844 185.757812 240.421875 202.371094 252.871094 209.988281 C 265.320312 217.605469 294.371094 240.453125 294.371094 240.453125 L 310.96875 214.835938 C 310.96875 214.835938 277.078125 198.910156 279.152344 192.679688 C 281.230469 186.449219 292.296875 169.832031 292.296875 169.832031 Z M 290.910156 124.136719 "/>
<path style=" stroke:none;fill-rule:nonzero;fill:rgb(24.705882%,23.921569%,33.72549%);fill-opacity:1;" d="M 391.199219 127.597656 L 400.191406 128.984375 C 400.191406 128.984375 437.542969 202.371094 428.550781 216.21875 C 419.558594 230.066406 382.902344 249.453125 382.902344 249.453125 C 382.902344 249.453125 382.210938 226.605469 375.984375 218.296875 L 397.425781 209.988281 L 385.667969 164.292969 Z M 391.199219 127.597656 "/>
</g>
</svg>
